<svg xmlns="http://www.w3.org/2000/svg" width="50" height="49" viewBox="0 0 50 49" fill="none">
  <g clip-path="url(#clip0_1_1503)">
    <path d="M29.9586 35.1781H16.4695V33.1364H27.9169V9.20723H2.5417V33.1364H6.8055V35.1781H0.5V7.16553H29.9586V35.1781Z" fill="#01005B"/>
    <path d="M49.5001 35.1779H43.0421V33.1362H47.4584V23.8237L38.5241 13.7369H29.9587V33.1362H33.3801V35.1779H27.917V11.6953H39.4432L49.5001 23.0491V35.1779Z" fill="#01005B"/>
    <path d="M38.2728 41.8345C34.9131 41.8345 32.1807 39.1015 32.1807 35.7425C32.1807 32.3833 34.9132 29.6504 38.2728 29.6504C41.6323 29.6504 44.3658 32.3834 44.3658 35.7425C44.3659 39.1015 41.6324 41.8345 38.2728 41.8345ZM38.2728 31.692C36.0397 31.692 34.2223 33.5089 34.2223 35.7425C34.2223 37.9761 36.0397 39.7929 38.2728 39.7929C40.5068 39.7929 42.3242 37.9761 42.3242 35.7425C42.3242 33.5088 40.5068 31.692 38.2728 31.692Z" fill="#01005B"/>
    <path d="M11.7261 41.8345C8.36653 41.8345 5.63403 39.1015 5.63403 35.7425C5.63403 32.3833 8.36663 29.6504 11.7261 29.6504C15.0856 29.6504 17.8181 32.3834 17.8181 35.7425C17.8181 39.1015 15.0857 41.8345 11.7261 41.8345ZM11.7261 31.692C9.49303 31.692 7.67563 33.5089 7.67563 35.7425C7.67563 37.9761 9.49303 39.7929 11.7261 39.7929C13.9591 39.7929 15.7764 37.9761 15.7764 35.7425C15.7765 33.5088 13.9592 31.692 11.7261 31.692Z" fill="#01005B"/>
  </g>
  <defs>
    <clipPath id="clip0_1_1503">
      <rect width="49" height="49" fill="white" transform="translate(0.5)"/>
    </clipPath>
  </defs>
</svg>